<?xml version="1.0" encoding="UTF-8"?>
<svg width="46px" height="36px" viewBox="0 0 46 36" version="1.1" xmlns="http://www.w3.org/2000/svg" xmlns:xlink="http://www.w3.org/1999/xlink">
    <!-- Generator: Sketch 52.2 (67145) - http://www.bohemiancoding.com/sketch -->
    <title>Group 2</title>
    <desc>Created with Sketch.</desc>
    <g id="PC" stroke="none" stroke-width="1" fill="none" fill-rule="evenodd">
        <g id="Nap-tien-1" transform="translate(-1039.000000, -718.000000)">
            <g id="Group-2" transform="translate(1039.000000, 718.000000)">
                <path d="M8.36813672,4.58249246 C8.36687891,3.4880201 9.15912109,2.33348744 10.7102734,1.4318593 C13.5439453,-0.21518593 17.8303906,-0.394100503 20.2843828,1.03233166 C21.38425,1.67164824 21.9275352,2.52497487 21.939125,3.42027136 L21.9395742,3.42027136 L21.9395742,4.77895477 L21.9395742,4.83955779 L21.9395742,6.19824121 L21.9378672,6.19833166 C21.9381367,6.20737688 21.9372383,6.21651256 21.9373281,6.22555779 L21.9395742,6.22537688 L21.9395742,7.54055276 L21.9395742,7.64466332 L21.9395742,8.9598392 L21.9378672,8.95992965 C21.9381367,8.96897487 21.9372383,8.97811055 21.9373281,8.98715578 L21.9395742,8.98697487 L21.9395742,10.4062613 L21.9378672,10.4064422 C21.9384961,10.4281508 21.9366992,10.4501307 21.9366094,10.4719296 L21.9395742,10.4716583 L21.9395742,11.8909447 L21.9378672,11.8910352 C21.9685039,13.0029648 21.1761719,14.183005 19.5969883,15.1008241 C16.7633164,16.7478693 12.4768711,16.9267839 10.0228789,15.5003518 C8.88491797,14.8388744 8.34837109,13.9478291 8.37469531,13.0186131 L8.37568359,11.6331558 C8.37514453,11.6001407 8.37379687,11.5671256 8.37469531,11.5340201 L8.37532422,10.1485628 C8.37532422,10.1282111 8.37415625,10.1079497 8.37469531,10.087598 L8.37424609,8.70223116 L8.37523437,7.38696482 C8.37523437,7.36661307 8.37406641,7.34635176 8.37460547,7.32590955 L8.36625,5.96794975 L8.36607031,5.96794975 L8.36607031,4.58258291 L8.36813672,4.58249246 Z" id="Path" fill="#DCA700"></path>
                <g id="Group" transform="translate(8.355469, 6.150754)" fill="#CC8200">
                    <path d="M1.66741016,3.65689447 C4.12140234,5.08332663 8.40784766,4.90441206 11.2415195,3.25736683 C12.8078555,2.34696482 13.5989297,1.17868342 13.5818594,0.0747135678 L13.5841055,0.0745326633 L13.5841055,1.4938191 L13.5823984,1.49390955 C13.6130352,2.6058392 12.8207031,3.7858794 11.2415195,4.70369849 C8.40784766,6.35074372 4.12140234,6.52965829 1.66741016,5.10322613 C0.529449219,4.44174874 -0.00709765625,3.55070352 0.0192265625,2.62148744 L0.0198554688,1.23639196 C0.0184179687,2.14344724 0.554515625,3.0099799 1.66741016,3.65689447 Z" id="Path"></path>
                    <path d="M1.66741016,6.41849246 C4.12140234,7.84492462 8.40784766,7.66601005 11.2415195,6.01896482 C12.8078555,5.10856281 13.5989297,3.94028141 13.5818594,2.83640201 L13.5841055,2.83622111 L13.5841055,4.25550754 L13.5823984,4.25568844 C13.6130352,5.36761809 12.8207031,6.54765829 11.2415195,7.46556784 C8.40784766,9.11261307 4.12140234,9.29152764 1.66741016,7.86509548 C0.529449219,7.20361809 -0.00709765625,6.31257286 0.0192265625,5.38344724 L0.0198554688,3.99835176 C0.0184179687,4.90513568 0.554515625,5.77166834 1.66741016,6.41849246 Z" id="Path"></path>
                </g>
                <path d="M10.7102734,1.4318593 C7.87660156,3.07890452 7.56888672,5.57050251 10.0228789,6.99693467 C12.4768711,8.42336683 16.7634062,8.24445226 19.5969883,6.59740704 C22.4305703,4.95036181 22.738375,2.45876382 20.2843828,1.03233166 C17.8303906,-0.394100503 13.5439453,-0.21518593 10.7102734,1.4318593 Z" id="Path" fill="#DCA700"></path>
                <path d="M21.939125,3.42027136 C21.9534102,4.52261307 21.1606289,5.68854271 19.5969883,6.59740704 C16.7633164,8.24445226 12.4768711,8.42336683 10.0228789,6.99693467 C8.91223047,6.35128643 8.36921484,5.48737688 8.36813672,4.58249246 L8.36616016,4.58267337 L8.36616016,5.9680402 C8.36616016,5.9680402 8.40829687,7.48809045 10.0228789,8.44896482 C12.4621367,9.90081407 16.7633164,9.69648241 19.5969883,8.04943719 C21.176082,7.13152764 21.9684141,5.95148744 21.9377773,4.83955779 L21.9395742,4.83946734 L21.9395742,3.42027136 L21.939125,3.42027136 Z" id="Path" fill="#CC8200"></path>
                <path d="M11.4994609,1.89063317 C9.16909375,3.24515578 8.91600391,5.29426131 10.9341641,6.46733668 C12.9523242,7.64041206 16.4775234,7.49324623 18.8078906,6.13872362 C21.1382578,4.78420101 21.3913477,2.73518593 19.3731875,1.5620201 C17.3550273,0.388944724 13.8298281,0.536020101 11.4994609,1.89063317 Z" id="Path" fill="#FFD800"></path>
                <path d="M12.1260312,3.40480402 C11.7640508,4.45314573 13.4387383,5.26386935 14.1723125,5.53495477 C15.1251055,5.88708543 16.1774453,5.96731658 17.1216133,5.5341407 L17.7609414,5.90571859 L18.3635234,5.55548744 L17.7224883,5.18282412 C17.9707266,5.0000201 18.1536484,4.80491457 18.269457,4.59723618 L17.2400273,3.99889447 C17.1085859,4.23551759 16.9387812,4.4380402 16.7307031,4.60637186 L14.1353867,3.09780905 C14.4125547,2.98998995 14.7195508,2.93029146 15.0109141,2.88 L14.3752695,2.13503518 C13.9035898,2.21463317 13.4872539,2.3401809 13.1246445,2.51023116 L12.5316758,2.16551759 L11.9290937,2.51574874 L12.5352695,2.8680603 C12.329707,3.03467337 12.1922461,3.21331658 12.1260312,3.40480402 C12.0306172,3.68122613 12.1922461,3.21331658 12.1260312,3.40480402 Z M13.5925508,3.48286432 L16.0535508,4.91336683 C15.5028984,5.00924623 13.2109844,4.35726633 13.5925508,3.48286432 Z" id="Shape" fill="#DCA700" fill-rule="nonzero"></path>
                <polyline id="Path" fill="#007A6E" points="46 12.1742412 46 18.146804 15.3333633 35.9306231 0 27.0286734 0 21.0868643 0 21.0868643 30.6666367 3.26152764 46 12.1742412"></polyline>
                <polygon id="Path" fill="#009F5E" points="46 12.1742412 46 18.146804 15.3333633 35.9306231 15.3333633 30.0100704"></polygon>
                <g id="Group" transform="translate(0.000000, 13.296482)" fill="#00917F">
                    <polygon id="Path" points="15.3327344 17.8999598 46 0.0679296482 46 1.25819095 15.3327344 19.0958291 0.0216523438 10.1960503 0.0216523438 9.00578894"></polygon>
                    <polygon id="Path" points="15.3384844 20.2707136 46 2.44836181 46 3.63862312 15.3384844 21.466402 0 12.5626432 0 11.3736482"></polygon>
                </g>
                <g id="Group" transform="translate(15.273438, 13.296482)" fill="#00AC65">
                    <polygon id="Path" points="30.7265625 0.0679296482 30.7265625 1.25819095 0.059296875 19.0958291 0.059296875 17.8999598"></polygon>
                    <polygon id="Path" points="30.7265625 2.44836181 30.7265625 3.63862312 0.065046875 21.466402 0.065046875 20.2707136"></polygon>
                </g>
                <polygon id="Path" fill="#00C169" points="5.61658203 24.3554472 0 21.0868643 0 21.0868643 0 21.0868643 30.6666367 3.26152764 46 12.1742412 15.3333633 30.0100704"></polygon>
                <polygon id="Path" fill="#FFE6C6" points="2.93348828 21.0909347 15.3498047 28.2940101 43.0797187 12.1742412 30.6683437 4.96601005"></polygon>
                <polygon id="Path" fill="#00AC65" points="40.1852227 12.1742412 30.6784961 6.64833166 5.88449609 21.0909347 15.3658867 26.5901608"></polygon>
                <polygon id="Path" fill="#E5AC91" points="20.4444844 9.20333668 35.7777578 18.1194874 35.7777578 24.0747739 25.5768086 29.9871859 25.5768086 24.0524322 10.2308672 15.1400804"></polygon>
                <polygon id="Path" fill="#FFD6A0" points="20.4444844 9.20333668 35.7777578 18.1194874 25.5768086 24.0524322 10.2308672 15.1400804"></polygon>
                <polygon id="Path" fill="#E5AC91" points="25.5768086 24.0524322 25.5768086 29.9871859 35.7777578 24.0747739 35.7777578 18.1194874"></polygon>
                <polygon id="Path" fill="#FFE6C6" points="11.6011641 14.3435578 19.0869453 9.99235176 34.415457 18.9077789 26.9419844 23.2563618"></polygon>
                <polygon id="Path" fill="#FFCBA1" points="34.415457 18.9077789 34.415457 24.8647839 26.9414453 29.1989849 26.9419844 23.2563618"></polygon>
                <g id="Group" transform="translate(3.863281, 5.427136)" fill="#FFE6C6">
                    <path d="M25.6431133,2.06131658 C26.5206172,2.57137688 27.8479688,2.62673367 28.607957,2.18505528 C29.3678555,1.74337688 29.2726211,0.971728643 28.3951172,0.461668342 C27.5176133,-0.0483919598 26.1902617,-0.103748744 25.4302734,0.337929648 C24.6702852,0.779698492 24.7656094,1.55125628 25.6431133,2.06131658 Z" id="Path"></path>
                    <path d="M26.508668,6.51283417 C27.0169141,6.80825126 27.785707,6.84036181 28.2258516,6.58447236 C28.6659961,6.32867337 28.610832,5.88174874 28.1025859,5.58633166 C27.5943398,5.29091457 26.8255469,5.25880402 26.3854023,5.51469347 C25.9452578,5.77049246 26.0004219,6.21732663 26.508668,6.51283417 Z" id="Path"></path>
                    <path d="M9.48830859,16.3855176 C9.99655469,16.6809347 10.7653477,16.7130452 11.2054922,16.4571558 C11.6456367,16.2013568 11.5904727,15.7544322 11.0822266,15.4590151 C10.5739805,15.163598 9.8051875,15.1314874 9.36504297,15.3873769 C8.92480859,15.6431759 8.9800625,16.0901005 9.48830859,16.3855176 Z" id="Path"></path>
                    <path d="M0.749117188,16.5511357 C1.62662109,17.061196 2.95397266,17.1165528 3.71396094,16.6748744 C4.47385937,16.233196 4.37853516,15.4615477 3.50112109,14.9515779 C2.62361719,14.4415176 1.29626562,14.3861608 0.536277344,14.8278392 C-0.223710938,15.2695176 -0.128386719,16.0410754 0.749117188,16.5511357 Z" id="Path"></path>
                    <path d="M34.8547031,7.42703518 C35.732207,7.93709548 37.0595586,7.99245226 37.8195469,7.55077387 C38.5794453,7.10909548 38.4842109,6.33744724 37.606707,5.82747739 C36.7292031,5.31741709 35.4018516,5.2620603 34.6418633,5.70373869 C33.881875,6.14541709 33.9771992,6.91697487 34.8547031,7.42703518 Z" id="Path"></path>
                    <path d="M9.91434766,21.9212864 C10.7918516,22.4313467 12.119293,22.4867035 12.8791914,22.0450251 C13.6390898,21.6033467 13.5438555,20.8317889 12.6663516,20.3217286 C11.7888477,19.8116683 10.4614961,19.7563116 9.70150781,20.1979899 C8.94160938,20.6396683 9.03684375,21.4112261 9.91434766,21.9212864 Z" id="Path"></path>
                </g>
                <g id="Group" transform="translate(16.171875, 11.849246)" fill="#E6C190">
                    <polygon id="Path" points="14.9970781 7.22424121 2.57851562 0.0112160804 1.25170312 0.782050251 13.6702656 8.01045226"></polygon>
                    <polygon id="Path" points="10.8498906 7.9378191 1.36544531 2.42312563 0.0462695312 3.1941407 9.53071484 8.69933668"></polygon>
                </g>
            </g>
        </g>
    </g>
</svg>