<?xml version="1.0" encoding="UTF-8"?>
<svg width="34px" height="31px" viewBox="0 0 34 31" version="1.1" xmlns="http://www.w3.org/2000/svg" xmlns:xlink="http://www.w3.org/1999/xlink">
    <!-- Generator: Sketch 52.2 (67145) - http://www.bohemiancoding.com/sketch -->
    <title>Artboard</title>
    <desc>Created with Sketch.</desc>
    <g id="Artboard" stroke="none" stroke-width="1" fill="none" fill-rule="evenodd">
        <g id="Group-3" transform="translate(0.000000, 4.000000)">
            <path d="M32.1141724,22.2040816 L1.88582759,22.2040816 C0.844137931,22.2040816 0,21.4427988 0,20.5033547 L0,1.70072692 C0,0.761282799 0.844137931,0 1.88582759,0 L32.1141724,0 C33.1558621,0 34,0.761282799 34,1.70072692 L34,20.5033547 C34,21.4427988 33.1558621,22.2040816 32.1141724,22.2040816" id="XMLID_115_" fill="#F0C41B"></path>
            <rect id="XMLID_114_" fill="#806F5E" x="0" y="2.64334305" width="34" height="4.22934888"></rect>
            <path d="M7.89584799,9.1856171 L3.1583392,9.1856171 C2.86777199,9.1856171 2.63194933,8.94877357 2.63194933,8.65694849 C2.63194933,8.36512342 2.86777199,8.12827988 3.1583392,8.12827988 L7.89584799,8.12827988 C8.1864152,8.12827988 8.42223786,8.36512342 8.42223786,8.65694849 C8.42223786,8.94877357 8.1864152,9.1856171 7.89584799,9.1856171" id="XMLID_113_" fill="#F9EAB0"></path>
            <path d="M14.7389163,9.1856171 L10.0014075,9.1856171 C9.71084025,9.1856171 9.47501759,8.94877357 9.47501759,8.65694849 C9.47501759,8.36512342 9.71084025,8.12827988 10.0014075,8.12827988 L14.7389163,8.12827988 C15.0294835,8.12827988 15.2653061,8.36512342 15.2653061,8.65694849 C15.2653061,8.94877357 15.0294835,9.1856171 14.7389163,9.1856171" id="XMLID_112_" fill="#F9EAB0"></path>
            <path d="M3.68472906,11.8289602 L3.1583392,11.8289602 C2.86777199,11.8289602 2.63194933,11.5921166 2.63194933,11.3002915 C2.63194933,11.0084665 2.86777199,10.7716229 3.1583392,10.7716229 L3.68472906,10.7716229 C3.97529627,10.7716229 4.21111893,11.0084665 4.21111893,11.3002915 C4.21111893,11.5921166 3.97529627,11.8289602 3.68472906,11.8289602" id="XMLID_111_" fill="#F9EAB0"></path>
            <path d="M6.84306826,11.8289602 L5.79028853,11.8289602 C5.49972132,11.8289602 5.26389866,11.5921166 5.26389866,11.3002915 C5.26389866,11.0084665 5.49972132,10.7716229 5.79028853,10.7716229 L6.84306826,10.7716229 C7.13363547,10.7716229 7.36945813,11.0084665 7.36945813,11.3002915 C7.36945813,11.5921166 7.13363547,11.8289602 6.84306826,11.8289602" id="XMLID_110_" fill="#F9EAB0"></path>
            <path d="M9.47501759,11.8289602 L8.94862773,11.8289602 C8.65806052,11.8289602 8.42223786,11.5921166 8.42223786,11.3002915 C8.42223786,11.0084665 8.65806052,10.7716229 8.94862773,10.7716229 L9.47501759,10.7716229 C9.7655848,10.7716229 10.0014075,11.0084665 10.0014075,11.3002915 C10.0014075,11.5921166 9.7655848,11.8289602 9.47501759,11.8289602" id="XMLID_109_" fill="#F9EAB0"></path>
            <path d="M12.6333568,11.8289602 L11.5805771,11.8289602 C11.2900099,11.8289602 11.0541872,11.5921166 11.0541872,11.3002915 C11.0541872,11.0084665 11.2900099,10.7716229 11.5805771,10.7716229 L12.6333568,10.7716229 C12.923924,10.7716229 13.1597467,11.0084665 13.1597467,11.3002915 C13.1597467,11.5921166 12.923924,11.8289602 12.6333568,11.8289602" id="XMLID_108_" fill="#F9EAB0"></path>
            <path d="M14.7389163,11.8289602 C14.6020549,11.8289602 14.4651935,11.7708066 14.3651795,11.6756463 C14.2704293,11.5751992 14.2125264,11.4430321 14.2125264,11.3002915 C14.2125264,11.1628377 14.2704293,11.0253839 14.3651795,10.9249368 C14.5599437,10.7293294 14.9126249,10.7293294 15.1126531,10.9249368 C15.2074032,11.0253839 15.2653061,11.1628377 15.2653061,11.3002915 C15.2653061,11.4377454 15.2074032,11.5751992 15.1126531,11.6756463 C15.012639,11.7708066 14.8757776,11.8289602 14.7389163,11.8289602" id="XMLID_107_" fill="#F9EAB0"></path>
            <path d="M28.52076,16.3556851 C28.52076,18.1076929 27.1068768,19.5276968 25.3624208,19.5276968 C23.6179648,19.5276968 22.2040816,18.1076929 22.2040816,16.3556851 C22.2040816,14.6036774 23.6179648,13.1836735 25.3624208,13.1836735 C27.1068768,13.1836735 28.52076,14.6036774 28.52076,16.3556851" id="XMLID_106_" fill="#DB2215"></path>
            <path d="M31.9901478,16.3556851 C31.9901478,18.1076929 30.5762646,19.5276968 28.8318086,19.5276968 C27.0873526,19.5276968 25.6734694,18.1076929 25.6734694,16.3556851 C25.6734694,14.6036774 27.0873526,13.1836735 28.8318086,13.1836735 C30.5762646,13.1836735 31.9901478,14.6036774 31.9901478,16.3556851" id="XMLID_105_" fill="#245EA9"></path>
            <path d="M5.0150271,18.0241341 L6.26861448,14.1651178 L7.21049904,14.1651178 L5.43514828,19.0981535 L4.60507015,19.0981535 L2.83649554,14.1651178 L3.77499203,14.1651178 L5.0150271,18.0241341 Z M8.67075893,19.0981535 L7.81696429,19.0981535 L7.81696429,14.1651178 L8.67075893,14.1651178 L8.67075893,19.0981535 Z M12.3027742,17.8276258 C12.3027742,17.610788 12.2265433,17.4436447 12.0740792,17.3261909 C11.9216151,17.208737 11.6466192,17.0901556 11.2490832,16.9704431 C10.8515472,16.8507305 10.5353301,16.7174676 10.3004225,16.5706504 C9.85093578,16.2883094 9.62619579,15.9201424 9.62619579,15.4661382 C9.62619579,15.0686022 9.78825704,14.7410917 10.1123844,14.4835968 C10.4365118,14.2261019 10.8571934,14.0973564 11.374442,14.0973564 C11.7177685,14.0973564 12.0238215,14.1605998 12.29261,14.2870885 C12.5613986,14.4135772 12.7725864,14.593708 12.9261798,14.8274863 C13.0797733,15.0612646 13.1565689,15.3204496 13.1565689,15.6050493 L12.3027742,15.6050493 C12.3027742,15.3475544 12.2220259,15.145966 12.0605269,15.0002781 C11.8990279,14.8545902 11.6680765,14.7817473 11.3676658,14.7817473 C11.0875836,14.7817473 10.8701844,14.8416027 10.7154616,14.9613152 C10.5607388,15.0810278 10.4833785,15.2481711 10.4833785,15.4627502 C10.4833785,15.6434483 10.5669502,15.7942161 10.734096,15.915058 C10.9012418,16.0359 11.1768024,16.153352 11.560786,16.2674177 C11.9447697,16.3814835 12.2530813,16.5113583 12.4857302,16.6570462 C12.7183791,16.8027342 12.8889105,16.9698775 12.9973294,17.1584812 C13.1057483,17.3470849 13.159957,17.5678722 13.159957,17.8208497 C13.159957,18.231938 13.0024131,18.5588839 12.6873206,18.8016971 C12.3722282,19.0445103 11.9447705,19.165915 11.4049346,19.165915 C11.0480557,19.165915 10.7199805,19.0998482 10.4206991,18.9677127 C10.1214178,18.8355772 9.88877235,18.6531877 9.7227559,18.4205388 C9.55673944,18.1878898 9.47373246,17.9168466 9.47373246,17.607401 L10.3309152,17.607401 C10.3309152,17.8874832 10.4235216,18.1043177 10.6087372,18.2579112 C10.7939529,18.4115047 11.0593494,18.4883002 11.4049346,18.4883002 C11.7030866,18.4883002 11.927262,18.4278802 12.0774673,18.3070383 C12.2276727,18.1861964 12.3027742,18.0263938 12.3027742,17.8276258 Z M16.6733897,17.9495965 L14.7625159,17.9495965 L14.3627232,19.0981535 L13.4716598,19.0981535 L15.3351004,14.1651178 L16.1041932,14.1651178 L17.971022,19.0981535 L17.0765705,19.0981535 L16.6733897,17.9495965 Z M15.0030692,17.2584294 L16.4328364,17.2584294 L15.7179528,15.2120327 L15.0030692,17.2584294 Z" id="VISA" fill="#64503D"></path>
        </g>
    </g>
</svg>